<svg xmlns="http://www.w3.org/2000/svg" width="24" height="24" viewBox="0 0 24 24">
    <g fill="none" fill-rule="evenodd">
        <path d="M0 0h24v24H0z"/>
        <path stroke="#FFF" d="M12 7.25v.25H7A3.5 3.5 0 0 0 3.5 11v1.5H3A1.5 1.5 0 0 0 1.5 14v2A1.5 1.5 0 0 0 3 17.5h.5V19A3.5 3.5 0 0 0 7 22.5h10a3.5 3.5 0 0 0 3.5-3.5v-1.5h.5a1.5 1.5 0 0 0 1.5-1.5v-2a1.5 1.5 0 0 0-1.5-1.5h-.5V11A3.5 3.5 0 0 0 17 7.5h-5v-.25zm0-.775v-.73.73zm0-.73v-.204l.4-.081a2 2 0 1 0-.8 0l.4.081v.205zm0-.245a2 2 0 1 1 0-4 2 2 0 0 1 0 4zm3.5 9.5a1.5 1.5 0 1 1 0-3 1.5 1.5 0 0 1 0 3zm-7 0a1.5 1.5 0 1 1 0-3 1.5 1.5 0 0 1 0 3zm1 2.5h5v1a1 1 0 0 1-1 1h-3a1 1 0 0 1-1-1v-1z"/>
    </g>
</svg>
